<svg width="22" height="22" viewBox="0 0 22 22" fill="none" xmlns="http://www.w3.org/2000/svg">
<path d="M6.02944 14.1912C4.73257 14.9634 1.33225 16.5401 3.40327 18.5132C4.41495 19.477 5.5417 20.1664 6.9583 20.1664H15.0417C16.4583 20.1664 17.5851 19.477 18.5967 18.5132C20.6677 16.5401 17.2674 14.9634 15.9705 14.1912C12.9294 12.3803 9.07059 12.3803 6.02944 14.1912Z" stroke="white" stroke-width="1.5" stroke-linecap="round" stroke-linejoin="round"/>
<path d="M15.125 5.95801C15.125 8.23618 13.2782 10.083 11 10.083C8.72183 10.083 6.875 8.23618 6.875 5.95801C6.875 3.67983 8.72183 1.83301 11 1.83301C13.2782 1.83301 15.125 3.67983 15.125 5.95801Z" stroke="white" stroke-width="1.5"/>
</svg>
