<svg width="22" height="22" viewBox="0 0 22 22" fill="none" xmlns="http://www.w3.org/2000/svg">
<path d="M16.5 1.83331V3.66665M5.5 1.83331V3.66665" stroke="white" stroke-width="1.5" stroke-linecap="round" stroke-linejoin="round"/>
<path d="M10.9959 11.9167H11.0042M10.9959 15.5834H11.0042M14.6585 11.9167H14.6667M7.33337 11.9167H7.3416M7.33337 15.5834H7.3416" stroke="white" stroke-width="2" stroke-linecap="round" stroke-linejoin="round"/>
<path d="M3.20837 7.33331H18.7917" stroke="white" stroke-width="1.5" stroke-linecap="round" stroke-linejoin="round"/>
<path d="M2.29163 11.2229C2.29163 7.22878 2.29163 5.23167 3.4394 3.99084C4.58718 2.75 6.43449 2.75 10.1291 2.75H11.8708C15.5654 2.75 17.4128 2.75 18.5605 3.99084C19.7083 5.23167 19.7083 7.22878 19.7083 11.2229V11.6937C19.7083 15.6879 19.7083 17.685 18.5605 18.9259C17.4128 20.1667 15.5654 20.1667 11.8708 20.1667H10.1291C6.43449 20.1667 4.58718 20.1667 3.4394 18.9259C2.29163 17.685 2.29163 15.6879 2.29163 11.6937V11.2229Z" stroke="white" stroke-width="1.5" stroke-linecap="round" stroke-linejoin="round"/>
<path d="M2.75 7.33331H19.25" stroke="white" stroke-width="1.5" stroke-linecap="round" stroke-linejoin="round"/>
</svg>
