<svg width="22" height="22" viewBox="0 0 22 22" fill="none" xmlns="http://www.w3.org/2000/svg">
<path d="M20.1667 11C20.1667 16.0625 16.0626 20.1666 11 20.1666C5.93743 20.1666 1.83337 16.0625 1.83337 11M7.79171 2.41046C8.79027 2.03732 9.87135 1.83331 11 1.83331C12.1287 1.83331 13.2098 2.03732 14.2084 2.41046" stroke="white" stroke-width="1.5" stroke-linecap="round" stroke-linejoin="round"/>
<path d="M6.89173 4.98046L7.37567 5.95635C7.44166 6.0922 7.61764 6.22251 7.76613 6.24746L8.64328 6.3944C9.20421 6.48866 9.33621 6.89898 8.93201 7.30375L8.25008 7.99131C8.13459 8.10775 8.07135 8.33232 8.10709 8.49312L8.30232 9.34421C8.4563 10.018 8.1016 10.2786 7.51041 9.92647L6.68825 9.43578C6.53976 9.34705 6.29504 9.34705 6.14381 9.43578L5.32165 9.92647C4.73321 10.2786 4.37575 10.0152 4.52974 9.34421L4.72496 8.49312C4.76071 8.33232 4.69747 8.10775 4.58198 7.99131L3.90006 7.30375C3.4986 6.89898 3.62783 6.48866 4.18878 6.3944L5.06593 6.24746C5.21166 6.22251 5.38764 6.0922 5.45363 5.95635L5.93759 4.98046C6.20155 4.45093 6.6305 4.45093 6.89173 4.98046Z" stroke="white" stroke-width="1.5" stroke-linecap="round" stroke-linejoin="round"/>
<path d="M16.0585 4.98046L16.5424 5.95635C16.6084 6.0922 16.7844 6.22251 16.9329 6.24746L17.81 6.3944C18.3709 6.48866 18.5029 6.89898 18.0987 7.30375L17.4168 7.99131C17.3013 8.10775 17.238 8.33232 17.2738 8.49312L17.469 9.34421C17.623 10.018 17.2683 10.2786 16.6771 9.92647L15.855 9.43578C15.7065 9.34705 15.4618 9.34705 15.3106 9.43578L14.4884 9.92647C13.9 10.2786 13.5425 10.0152 13.6965 9.34421L13.8917 8.49312C13.9274 8.33232 13.8642 8.10775 13.7487 7.99131L13.0668 7.30375C12.6653 6.89898 12.7946 6.48866 13.3555 6.3944L14.2327 6.24746C14.3784 6.22251 14.5544 6.0922 14.6204 5.95635L15.1043 4.98046C15.3683 4.45093 15.7972 4.45093 16.0585 4.98046Z" stroke="white" stroke-width="1.5" stroke-linecap="round" stroke-linejoin="round"/>
<path d="M7.33337 13.75C8.16948 14.8632 9.50065 15.5833 11 15.5833C12.4994 15.5833 13.8306 14.8632 14.6667 13.75" stroke="white" stroke-width="1.5" stroke-linecap="round" stroke-linejoin="round"/>
</svg>
